<svg xmlns="http://www.w3.org/2000/svg">
<rect x="0" y="0" rx="12" ry="12" width="55" height="55" style="fill:#ff1493;"/>
<g>
	<path class="st0" style="fill:white;" d="M29.5,41.5c-7.1,0-12.9-5.8-12.9-12.9c0-7.1,5.8-12.9,12.9-12.9c3,0,6,1.1,8.3,3c0.4,0.3,0.6,0.9,0.4,1.4
		c-0.1,0.5-0.6,0.9-1.1,1c-3.6,0.6-6.2,3.6-6.2,7.3c0,3.7,2.8,6.9,6.5,7.3c0.6,0.1,1,0.5,1.1,1c0.1,0.5,0,1.1-0.4,1.4
		C35.8,40.3,32.7,41.5,29.5,41.5z M29.5,18.5c-5.6,0-10.1,4.5-10.1,10.1s4.5,10.1,10.1,10.1c1.6,0,3.1-0.4,4.6-1.1
		c-3.6-1.6-5.9-5.2-5.9-9.2c0-3.9,2.1-7.4,5.6-9C32.4,18.8,30.9,18.5,29.5,18.5z"/>
	<path class="st0" style="fill:white;" d="M37,20.6c0.3,0,0.6-0.3,0.7-0.6c0.1-0.3,0-0.7-0.3-0.9c-2.2-1.9-5-2.9-8-2.9c-6.8,0-12.4,5.6-12.4,12.4
		S22.7,41,29.5,41c3.1,0,6-1.1,8.3-3.2c0.3-0.2,0.3-0.6,0.3-0.9c-0.1-0.3-0.4-0.6-0.7-0.6c-4-0.5-7-3.8-7-7.8
		C30.4,24.5,33.2,21.2,37,20.6L37,20.6z M28.6,28.4c0,4.2,2.7,7.8,6.6,9.1c-1.7,1.1-3.7,1.7-5.7,1.7c-5.9,0-10.6-4.8-10.6-10.6
		S23.7,18,29.5,18c1.9,0,3.7,0.5,5.4,1.4C31.2,20.8,28.6,24.3,28.6,28.4z"/>
</g>
</svg>
